PathFileType	4	(X/Y/Z)	C:/Users/beibeiliu/ov580/test_trc\sequence.36_training_dense_right.trc
DataRate	CameraRate	NumFrames	NumMarkers	Units	OrigDataRate	OrigDataStartFrame	OrigNumFrames
120	120	16	19	mm	120	29	57
Frame#	Time	ThumbCMC			ThumbMCP			ThumbIP			ThumbTip			IndexMCP			IndexPIP			IndexTip			MiddleMCP			MiddlePIP			MiddleTip			RingMCP			RingPIP			RingTip			PinkyMCP			PinkyPIP			PinkyTip			BackHand1			BackHand2			BackHand3	
		X0	Y0	Z0	X1	Y1	Z1	X2	Y2	Z2	X3	Y3	Z3	X4	Y4	Z4	X5	Y5	Z5	X6	Y6	Z6	X7	Y7	Z7	X8	Y8	Z8	X9	Y9	Z9	X10	Y10	Z10	X11	Y11	Z11	X12	Y12	Z12	X13	Y13	Z13	X14	Y14	Z14	X15	Y15	Z15	X16	Y16	Z16	X17	Y17	Z17	X18	Y18	Z18	
28	0.233333	74.6767	25.717	136.335	56.8356	19.8942	113.067	46.4053	20.4362	91.836	37.1378	20.9938	69.6327	69.5703	19.5674	64.4387	53.6702	-4.12953	66.7587	62.63	-1.71855	102.393	84.5984	1.45158	63.837	66.6277	-20.5271	75.1132	75.7398	-9.78552	111.118	94.9399	-15.4073	71.2063	79.1712	-30.7147	91.7086	89.6708	-12.7853	117.702	108.556	-24.6606	80.6842	90.7924	-34.5848	102.329	100.179	-16.6315	126.797	129.518	16.4994	106.718	135.614	16.8301	139.791	106.179	37.4997	123.003	
29	0.241667	75.6144	33.7985	137.897	55.0178	29.1624	116.653	41.2128	33.3769	90.4295	36.8866	31.7261	66.8933	67.1545	21.1247	64.3003	47.5434	3.3165	69.0908	56.569	4.8528	101.516	77.4153	2.13311	64.1901	57.5027	-15.0641	81.0198	67.1133	1.54974	113.146	87.3919	-13.5365	73.8897	66.3005	-22.7909	96.0976	80.5799	-3.54709	119.83	97.8754	-23.6188	83.1429	78.2396	-29.6364	106.819	90.5681	-12.6173	129.562	125.461	12.6961	104.044	133.884	14.6543	137.424	106.409	39.6809	124.952	
30	0.25	77.5927	47.3452	134.111	56.9198	47.514	114.098	45.4749	49.7706	91.8623	38.9168	48.4328	70.6305	63.4487	35.0654	66.0243	40.6269	17.5499	72.734	49.8158	19.7489	103.074	67.7052	9.85099	67.2644	43.2028	0.120614	85.4719	61.079	11.9181	114.641	70.6688	-8.34723	75.7429	50.2654	-8.13466	98.6273	74.5383	4.89614	122.273	79.1764	-18.2177	86.5183	60.636	-14.8641	108.231	76.2823	-1.28081	129.816	118.222	7.18496	104.507	125.617	11.3681	134.066	110.1	40.2608	121.625	
31	0.258333	90.3501	55.7034	131.205	70.0308	63.4922	107.596	60.3038	67.59	86.1543	50.742	67.946	63.2504	70.2859	39.8949	63.9614	39.0578	40.0393	71.5	51.4476	38.4993	102.767	60.6172	19.255	65.8352	35.82	20.653	85.1628	58.9301	30.5521	115.266	56.6258	4.63928	77.7005	40.1201	11.2384	101.978	63.6238	20.3696	121.054	60.8735	-11.2998	89.6323	46.2567	1.8823	110.224	69.0725	13.2686	129.061	107.972	2.15835	103.322	121.309	6.00513	134.356	114.875	31.8015	117.05	
32	0.266667	108.187	55.4345	129.358	91.1623	67.0803	102.421	83.4646	72.9839	77.5949	73.41	71.0218	56.7286	82.2381	40.0562	60.8165	52.5298	55.4815	67.1134	60.0068	53.4899	96.5944	68.2202	24.4664	65.6862	43.4876	40.7523	81.2799	64.1512	36.8332	112.122	56.5824	11.8961	77.3092	41.8235	28.7662	97.8921	68.8402	25.0871	120.227	54.9705	-1.50968	90.0659	41.9668	15.2062	112.356	72.506	17.9772	127.345	102.411	-9.06186	106.176	111.748	-8.00793	135.084	119.101	19.7116	112.887	
33	0.275	125.492	38.0738	127.891	116.132	53.4059	104.805	111.571	58.9523	78.1848	105.831	58.3965	52.1482	102.404	29.578	56.4625	78.42	46.8884	58.5781	80.7001	45.8423	92.2922	83.0455	12.6805	65.2992	63.1816	37.4631	74.7582	79.8051	35.5267	106.996	65.9763	8.42925	74.9745	56.5119	28.3937	94.1383	77.5611	20.4552	117.872	60.6794	-2.14003	88.4139	53.7958	18.9407	107.634	82.0297	12.4842	129.389	106.985	-22.3433	109.344	114.947	-19.8078	137.05	131.943	4.77524	119.039	
34	0.283333	145.489	13.038	129.605	143.027	27.3288	103.006	141.226	29.0604	81.1756	141.643	30.5558	53.1915	127.58	-0.481202	60.9729	110.501	27.3017	56.93	108.747	30.1141	88.1909	110.343	-3.37423	61.7174	92.7728	19.7202	69.0322	105.744	16.2562	105.47	92.6288	-9.75638	72.8553	81.3499	13.1412	85.9612	103.262	6.82995	114.738	81.0933	-17.2659	86.4926	75.6156	6.76911	101.564	98.0026	1.86306	123.917	116.624	-41.3621	117.205	124.291	-38.006	146.759	146.34	-21.07	123.161	
35	0.291667	162.755	-3.15751	139.636	164.551	7.03455	107.446	169.695	10.4292	84.3129	168.011	5.34126	61.2275	157.575	-19.0314	63.5403	138.892	1.20915	57.2195	135.297	14.3983	87.4438	134.249	-24.2558	63.9369	119.276	2.5341	69.019	125.09	0.565474	105.617	114.546	-29.6896	74.7876	109.538	0.389918	84.3502	121.482	-8.5767	116.498	103.343	-31.0895	84.2427	98.8477	-7.65732	94.2133	115.964	-11.7122	122.684	136.148	-56.9768	122.432	135.852	-52.3577	155.763	160.613	-40.9294	133.925	
36	0.3	178.946	-11.303	142.705	180.642	-0.759034	117.014	192.089	-1.91869	87.9764	194.499	-4.5805	67.4346	179.326	-32.8164	72.2825	167.593	-7.43361	60.0653	155.41	2.41206	89.163	161.842	-33.8036	69.505	145.228	-8.95667	69.4589	150.113	-5.03931	107.932	140.02	-38.7836	76.9949	131.614	-9.14305	85.0431	141.766	-15.0853	115.857	123.327	-43.6093	87.3658	120.15	-12.5336	97.1003	133.227	-14.858	121.818	150.798	-62.4028	128.065	150.036	-58.4704	156.027	175.945	-46.5496	144.915	
37	0.308333	189.043	-5.59236	150.054	197.384	5.29945	121.798	210.398	3.71007	93.2646	213.635	-0.937873	71.9975	201.125	-29.0491	79.8832	186.472	-8.33594	63.7395	176.085	7.36994	93.0412	181.474	-33.6218	73.3063	162.859	-8.39882	72.0046	163.24	-5.99839	109.785	161.625	-39.2588	77.8183	150.495	-8.92961	85.2389	157.898	-11.6658	115.369	143.645	-42.627	85.5245	138.184	-14.1566	95.3277	151.029	-17.1634	123.943	168.049	-62.5656	132.225	161.593	-58.6391	158.477	191.903	-43.3529	144.777	
38	0.316667	196.899	10.446	150.785	203.501	21.1185	122.292	217.345	22.1228	95.4163	221.595	19.7078	75.4097	217.246	-11.0543	78.2329	199.478	8.0687	65.2522	184.598	14.576	94.8311	198.294	-23.5416	75.4012	179.028	0.761956	70.5269	175.37	5.58007	108.86	181.757	-27.2792	76.3682	162.271	-6.43065	80.4765	169.11	-4.26539	114.568	166.581	-39.3852	86.2609	150.676	-15.3373	90.4225	160.451	-11.3569	120.401	188.906	-49.4559	132.553	182.348	-45.0848	159.01	207.584	-27.6758	148.076	
39	0.325	192.536	33.744	145.615	197.261	39.4707	113.957	207.247	42.0892	90.6306	212.858	42.2567	70.5564	224.079	15.8641	81.9984	201.77	24.565	60.2227	181.07	27.5552	89.0061	211.837	-0.503771	72.2137	180.682	8.86311	68.3945	176.278	11.0175	105.047	195.094	-17.4879	73.9004	170.753	-1.41567	78.4644	175.121	2.40052	112.304	188.497	-28.4377	84.8593	162.756	-12.7875	89.3497	170.629	-7.33649	120.705	209.382	-31.87	131.547	196.623	-28.5911	160.758	217.209	1.08157	146.964	
40	0.333333	177.158	45.7355	135.534	175.707	49.9314	106.889	184.1	56.5483	81.8251	195.029	54.6217	61.0735	215.578	38.9581	74.6999	192.685	29.5073	54.9632	173.086	27.2934	85.5131	213.995	13.708	70.5271	184.693	11.447	61.2702	172.625	14.359	98.0552	208.013	-6.20542	76.3902	176.954	-3.00422	75.0178	174.134	3.17881	107.913	203.821	-21.2961	83.9509	173.783	-16.3979	88.6089	175.274	-5.59888	118.689	221.52	-1.46319	130.528	209.153	-3.11558	159.697	209.814	26.2206	142.669	
41	0.341667	158	43.6513	127.284	151.936	45.6072	98.3803	162.743	49.4142	71.3074	171.4	50.7006	47.7878	195.693	48.9107	64.4149	179.815	26.4422	48.4192	163.165	19.6429	76.0084	205.08	26.3896	62.0273	183.384	4.62666	59.1179	172.536	8.79289	95.5346	209.275	5.13408	71.1322	183.282	-6.17107	71.9331	178.013	4.21152	107.477	215.947	-7.41353	85.6483	184.478	-14.026	88.7394	180.81	-4.78712	116.514	219.922	24.1043	129.165	206.803	20.209	152.664	192.441	47.6264	134.941	
42	0.35	143.139	32.8929	120.346	136.168	26.4939	93.3285	140.949	29.2174	63.0569	149.491	28.9258	39.4844	177.078	34.035	53.8467	168.58	9.24936	45.4777	156.319	2.80174	75.7948	193.098	19.0065	56.4995	179.859	-6.9822	56.2477	165.681	-2.67416	92.5614	199.88	7.44751	68.7629	181.08	-15.7631	74.9127	170.808	-2.88446	102.61	213.174	-3.29667	83.133	190.291	-22.4104	89.2667	179.563	-4.92919	117.046	206.023	36.0385	120.683	197.292	32.6495	146.154	174.289	49.301	121.767	
43	0.358333	125.656	15.2335	119.228	123.606	1.69314	94.7245	123.609	-1.87668	67.494	129.867	-5.0761	45.6023	156.474	13.2716	53.8675	149.651	-19.9677	49.9852	144.26	-19.4736	80.9233	174.005	4.52028	57.1985	164.763	-26.7505	60.0517	155.626	-19.8548	94.12	188.282	-4.43728	66.7071	173.368	-30.4669	80.4048	167.59	-14.7236	107.492	202.377	-10.957	79.749	183.689	-29.9224	92.6405	174.405	-11.0406	116.981	187.524	33.5135	111.479	181.689	35.4113	138.047	156.805	38.3707	118.503	
